<svg preserveAspectRatio="none" width="100%" height="100%" overflow="visible" style="display: block;" viewBox="0 0 25 7" fill="none" xmlns="http://www.w3.org/2000/svg">
<g id="~">
<path d="M24.9629 4.08105C24.1149 4.99968 23.1606 5.70652 22.1006 6.20117C21.0407 6.69571 19.8744 6.94336 18.6025 6.94336C17.6134 6.94333 16.589 6.83693 15.5293 6.625C14.5047 6.37769 13.1972 5.91832 11.6074 5.24707C10.3354 4.68174 9.27476 4.31046 8.42676 4.13379C7.61419 3.92184 6.81924 3.81641 6.04199 3.81641C5.0527 3.81641 4.01033 4.11617 2.91504 4.7168C1.81971 5.31746 0.848 6.06003 0 6.94336V2.80859C0.847949 1.89004 1.80239 1.20148 2.8623 0.742188C3.92226 0.247576 5.08842 0 6.36035 0C7.38488 2.42332e-05 8.39166 0.106393 9.38086 0.318359C10.4055 0.53036 11.7311 0.989622 13.3564 1.69629C14.6282 2.26151 15.6708 2.65033 16.4834 2.8623C17.3312 3.03891 18.1263 3.12695 18.8682 3.12695C19.8928 3.12692 20.9526 2.82622 22.0479 2.22559C23.1431 1.62494 24.1149 0.883293 24.9629 0V4.08105Z" fill="var(--fill-0, #791227)"/>
<path d="M24.9629 4.08105C24.1149 4.99968 23.1606 5.70652 22.1006 6.20117C21.0407 6.69571 19.8744 6.94336 18.6025 6.94336C17.6134 6.94333 16.589 6.83693 15.5293 6.625C14.5047 6.37769 13.1972 5.91832 11.6074 5.24707C10.3354 4.68174 9.27476 4.31046 8.42676 4.13379C7.61419 3.92184 6.81924 3.81641 6.04199 3.81641C5.0527 3.81641 4.01033 4.11617 2.91504 4.7168C1.81971 5.31746 0.848 6.06003 0 6.94336V2.80859C0.847949 1.89004 1.80239 1.20148 2.8623 0.742188C3.92226 0.247576 5.08842 0 6.36035 0C7.38488 2.42332e-05 8.39166 0.106393 9.38086 0.318359C10.4055 0.53036 11.7311 0.989622 13.3564 1.69629C14.6282 2.26151 15.6708 2.65033 16.4834 2.8623C17.3312 3.03891 18.1263 3.12695 18.8682 3.12695C19.8928 3.12692 20.9526 2.82622 22.0479 2.22559C23.1431 1.62494 24.1149 0.883293 24.9629 0V4.08105Z" stroke="var(--stroke-0, #791227)"/>
</g>
</svg>
